<svg width="44px" height="40px" viewBox="0 0 44 40" version="1.1" xmlns="http://www.w3.org/2000/svg" xmlns:xlink="http://www.w3.org/1999/xlink" class="icon-logo-symbol">
    <title>logo-symbol-big</title>
    <g id="Mobile---Section" stroke="none" stroke-width="1" fill="none" fill-rule="evenodd">
        <g id="Checkout-Mobile" transform="translate(-166.000000, -14.000000)" fill="#FFFFFF">
            <g id="logo-symbol-big" transform="translate(166.000000, 14.000000)">
                <path d="M37.9259261,7.87840578 C37.7851261,7.82933911 37.6251261,7.83360578 37.4619261,7.84533911 C37.2720594,7.85813911 37.1216594,8.01280578 37.1163261,8.20267244 C37.1120594,8.39253911 37.1120594,8.58027244 37.1707261,8.74773911 C37.3179261,9.16907244 37.6816594,9.53493911 37.7520594,9.95840578 C38.1008594,12.0437391 38.4187261,14.1429391 37.2976594,16.1301391 C37.2144594,16.2773391 37.1568594,16.4384058 37.1152594,16.6016058 C36.8731261,17.5605391 36.5659261,18.5109391 36.4315261,19.4848058 C36.1851261,21.2704058 35.8107261,22.9877391 34.8208594,24.5365391 C32.4528594,28.2378724 29.0043261,30.5066724 24.9211261,31.8144058 C22.4272594,32.6122724 19.7893928,32.5824058 17.1856594,32.5504058 C16.5360594,32.5418724 16.3931261,32.7904058 16.5264594,33.3578724 C16.8645928,34.7978724 17.5749928,36.0341391 18.5232594,37.1594724 C20.3995261,39.3834724 25.2923261,40.2698724 27.9984594,37.2682724 C29.3936594,35.7205391 31.1621928,34.7573391 33.0939261,34.0213391 C34.7173928,33.4037391 36.3131261,32.7018724 37.8875261,31.9648058 C39.2133928,31.3440058 40.3781928,30.4810724 41.1483261,29.1925391 C41.8395261,28.0352058 41.7595261,27.1861391 40.9179261,26.1418724 C40.6309928,25.7866724 40.3451261,25.4304058 40.0379261,25.0474724 C39.9013928,24.8768058 39.9408594,24.6250724 40.1232594,24.5066724 C40.2928594,24.3946724 40.4421928,24.2976058 40.5936594,24.2037391 C41.9696594,23.3493391 42.9445928,22.2528058 42.9819261,20.5152058 C43.0341928,18.1418724 43.1664594,15.7706724 43.1803573,13.3973391 C43.1835261,12.8501391 42.9403261,12.2400058 42.6448594,11.7621391 C41.5195261,9.94240578 39.9696594,8.59307244 37.9259261,7.87840578 L37.9259261,7.87840578 Z" id="Path"></path>
                <path d="M20.2085928,0.519472442 C19.1365928,0.371205776 18.0592594,0.251739109 16.9893928,0.0842724424 C15.4683261,-0.152527558 14.0955261,0.0917391091 12.8304594,1.04640578 C12.2683261,1.47093911 11.5653928,1.73333911 10.8944594,1.98720578 C10.0560594,2.30400578 9.42992611,2.81813911 9.17179278,3.67360578 C8.97765944,4.31467244 8.79312611,4.98667244 8.78032611,5.64907244 C8.72272611,8.54613911 9.41285944,11.3344058 10.1435261,14.1098724 C10.2405928,14.4789391 10.5019261,14.8042724 10.6875261,15.1498724 C10.7653928,15.2778724 10.8080594,15.3984058 10.8784594,15.3696058 C10.9307261,15.3482724 10.9179261,15.2064058 10.9083261,15.0666724 C10.9083261,13.9189391 10.8880594,12.7712058 10.9136594,11.6256058 C10.9637928,9.31733911 11.5120594,7.16160578 12.8923261,5.25973911 C13.7488594,4.08000578 14.8368594,3.27040578 16.2725928,2.93440578 C17.3264594,2.68800578 18.3835261,2.43947244 19.4149928,2.11627244 C19.9653928,1.94347244 20.4869928,1.64480578 20.9808594,1.33760578 C21.3723261,1.09547244 21.2784594,0.812805776 20.8699261,0.661339109 C20.6597928,0.584539109 20.4315261,0.550405776 20.2085928,0.519472442 L20.2085928,0.519472442 Z" id="Path"></path>
                <path d="M34.0635261,14.7776058 C33.9856594,14.1141391 33.8565928,13.4549391 33.7509928,12.7936058 C33.6229928,12.3157391 33.6229928,12.3157391 33.4800594,12.7776058 C33.2421928,13.6117391 33.0000594,14.4458724 32.7653928,15.2800058 C31.7947261,18.7296058 28.1168594,21.7216058 24.3312594,20.9717391 C23.6677928,20.8405391 23.0075261,20.6752058 22.3621928,20.4725391 C20.1851261,19.7898724 18.0293928,19.0378724 15.8405928,18.3989391 C13.7115261,17.7760058 11.9227261,18.3872058 10.5232594,20.1216058 C9.60805944,21.2565391 9.83632611,22.1792058 11.2112594,22.6698724 C12.1509928,23.0048058 12.8752594,23.5754724 13.3755261,24.4224058 C13.8011261,25.1413391 14.1872594,25.8837391 14.5851261,26.6186724 C15.1995261,27.7557391 16.0101928,28.6922724 17.1621928,29.3322724 C19.9216594,30.8661391 22.7333928,31.0549391 25.6133928,29.7130724 C30.5829928,27.3984058 34.8741928,21.6320058 34.0635261,14.7776058 L34.0635261,14.7776058 Z" id="Path"></path>
                <path d="M16.2992594,11.6128058 C17.0917928,9.17333911 18.4752594,7.14880578 20.5840594,5.66613911 C23.5408594,3.58720578 27.5781928,3.71093911 30.9989928,5.90080578 C32.9328594,7.13920578 34.1083261,8.78933911 34.2853928,11.1360058 C34.3643261,12.1664058 34.6117928,13.1882724 34.8453928,14.1994724 C34.8944594,14.4074724 35.0245928,15.7248058 35.2688594,15.6128058 C35.5973928,15.4645391 35.8885928,14.5504058 35.9013928,14.4234724 C36.1968594,11.6544058 36.0645928,8.90667244 35.3157928,6.21867244 C34.7632594,4.23147244 33.4864594,2.85547244 31.4853928,2.25387244 C29.7989928,1.74613911 28.1019261,1.25867244 26.3877928,0.859739109 C25.3765928,0.624005776 24.3248594,0.573872442 23.3467261,1.11787244 C21.6891261,2.04160578 19.9867261,2.89387244 18.3760594,3.89333911 C17.3925928,4.50453911 16.4005928,5.21173911 15.6656594,6.08853911 C13.9205928,8.16853911 13.2485928,10.6506724 13.4533928,13.3632058 C13.5248594,14.3093391 14.0635261,14.6848058 14.9125928,14.2570724 C15.2741928,14.0757391 15.5867261,13.6682724 15.7680594,13.2906724 C16.0197928,12.7669391 16.1179261,12.1717391 16.2992594,11.6128058 L16.2992594,11.6128058 Z" id="Path"></path>
                <path d="M26.8272594,9.93813911 C27.3499261,10.4128058 27.3499261,11.7397391 26.9403261,12.1898724 C26.5253928,12.7552058 25.9600594,13.2565391 25.3637928,13.6330724 C24.0965928,14.4341391 22.4603261,13.9477391 21.3104594,12.5248058 C20.5808594,11.6245391 20.7248594,10.4682724 21.7061928,9.33760578 C23.4661928,7.31093911 27.3808594,6.93653911 29.3712594,8.75413911 C29.6048594,8.96747244 30.5435261,9.84747244 30.2459261,12.0320058 C30.1029928,13.1114724 29.2901928,13.8997391 28.5563261,14.6528058 C27.6720594,15.5594724 26.7472594,16.4277391 25.9056594,17.3706724 C25.6603261,17.6469391 25.4448594,18.2176058 25.5707261,18.4821391 C25.6997928,18.7509391 26.3013928,18.9856058 26.6373928,18.9237391 C27.3723261,18.7882724 28.1499261,18.5792058 28.7664594,18.1781391 C30.2832594,17.1914724 31.3253928,15.7397391 32.0261928,14.1002724 C33.1419261,11.4890724 32.3483261,8.42773911 29.8309928,7.11040578 C28.4752594,6.40107244 27.0000594,6.23360578 25.5163261,6.04053911 C23.7147261,5.80480578 22.0240594,6.81493911 20.7077928,8.01280578 C18.8197928,9.73120578 17.5771261,11.8496058 16.6096594,14.1664058 C16.0645928,15.4730724 16.3216594,16.4384058 17.4939261,17.2170724 C18.8741928,18.1344058 20.4155261,18.6122724 22.0592594,18.3722724 C22.7195261,18.2752058 23.4437928,17.8805391 23.9205928,17.4026724 C24.9552594,16.3669391 25.8757928,15.2106724 26.7920594,14.0640058 C27.5728594,13.0880058 28.3184594,12.1973391 28.3024594,10.7242724 C28.0059261,8.43200578 26.1147261,8.45760578 25.3221928,8.49920578 C23.9045928,8.57280578 22.3696594,9.43787244 22.2277928,10.9450724 C22.2181928,11.0389391 22.3408594,11.0858724 22.3931261,11.0069391 C22.8336594,10.3424058 24.8635261,8.25707244 26.8272594,9.93813911 L26.8272594,9.93813911 Z" id="Path"></path>
                <path d="M24.5445928,11.3440058 C24.5627261,11.2117391 24.5765928,11.0794724 24.5819261,10.9472058 C24.5872594,10.8074724 24.5531261,10.5952058 24.4624594,10.5408058 C24.3397928,10.4693391 24.1136594,10.4586724 23.9877928,10.5269391 C23.2709928,10.9120058 23.2699261,11.8453391 23.9717928,12.2570724 C24.6064594,12.6304058 25.4576594,12.5109391 25.7776594,11.9061391 C25.8107261,11.8442724 25.7648594,11.7706724 25.6955261,11.7749391 C25.5643261,11.7834724 25.3349928,11.8410724 24.9413928,11.8208058 C24.6949928,11.8080058 24.5125928,11.5882724 24.5445928,11.3440058 L24.5445928,11.3440058 Z" id="Path"></path>
                <path d="M9.04379278,15.6736058 C8.60432611,13.8549391 8.20539278,12.0256058 7.78085944,10.2026724 C7.63899278,9.59253911 7.22939278,9.30133911 6.60859278,9.27467244 C5.32005944,9.21813911 4.31419278,9.76853911 3.58779278,10.7829391 C2.51259278,12.2848058 1.74565944,13.9253391 1.38299278,15.7621391 C1.14405944,16.9706724 0.834726111,18.1802724 0.412326111,19.3365391 C-0.251140556,21.1541391 -0.266073889,23.1104058 1.51739278,24.3925391 C3.75312611,26.0010724 6.01339278,27.5765391 8.29392611,29.1200058 C9.46939278,29.9146724 10.8091261,30.3669391 12.2117928,30.5536058 C13.3509928,30.7050724 14.5019261,30.7733391 15.6485928,30.8704058 C15.8651261,30.8896058 15.9557928,30.6016058 15.7680594,30.4938724 C15.5899261,30.3904058 15.4075261,30.2912058 15.2549928,30.1600058 C14.3845928,29.4133391 13.4096594,28.7498724 12.6928594,27.8752058 C11.0800594,25.9093391 9.60379278,23.8325391 8.06565944,21.8048058 C7.66352611,21.2746724 7.58885944,20.5674724 7.85872611,19.9594724 C8.09125944,19.4357391 8.35152611,18.9216058 8.62245944,18.4170724 C9.08645944,17.5488058 9.28272611,16.6581391 9.04379278,15.6736058 L9.04379278,15.6736058 Z" id="Path"></path>
            </g>
        </g>
    </g>
</svg>