<svg width="29px" height="27px" viewBox="0 0 29 27" version="1.1" xmlns="http://www.w3.org/2000/svg" xmlns:xlink="http://www.w3.org/1999/xlink">
    <title>easy-returns</title>
    <defs>
        <polygon id="path-1" points="0 25.5185185 28.04 25.5185185 28.04 0 0 0"></polygon>
    </defs>
    <g id="symbols" stroke="none" stroke-width="1" fill="none" fill-rule="evenodd">
        <g id="Group-2-Copy-2" transform="translate(-270.000000, 1.000000)">
            <g id="easy-returns" transform="translate(270.000000, 0.000000)">
                <path d="M26.25,12.7592593 C26.25,19.6733333 20.43,25.2777778 13.25,25.2777778 C6.07,25.2777778 0.25,19.6733333 0.25,12.7592593 C0.25,5.84518519 6.07,0.240740741 13.25,0.240740741 C17.729,0.240740741 21.678,2.42185185 24.016,5.74118519" id="Stroke-1" stroke="#2D2D2D" stroke-width="0.5"></path>
                <polyline id="Stroke-3" stroke="#2D2D2D" stroke-width="0.5" points="27.852 14.2012963 26.25 12.4381111 24.714 13.9595926"></polyline>
                <polygon id="Stroke-5" stroke="#2D2D2D" stroke-width="0.5" points="8.6204 5.98288889 17.9164 5.98288889 20.2874 8.12259259 20.2874 18.928963 6.3244 18.928963 6.3244 8.05133333"></polygon>
                <line x1="6.3241" y1="8.05142963" x2="20.2871" y2="8.12268889" id="Stroke-7" stroke="#2D2D2D" stroke-width="0.5"></line>
                <line x1="7.7685" y1="15.5786222" x2="11.9905" y2="15.5786222" id="Stroke-9" stroke="#2D2D2D" stroke-width="0.5"></line>
                <line x1="7.7685" y1="17.1341926" x2="9.9125" y2="17.1341926" id="Stroke-11" stroke="#2D2D2D" stroke-width="0.5"></line>
                <path d="M14.0278,5.98288889 L14.8918,8.12259259 L14.8918,10.4327407 C14.8918,10.529037 14.8108,10.607037 14.7098,10.607037 L11.7648,10.607037 C11.6648,10.607037 11.5838,10.529037 11.5838,10.4327407 L11.5838,8.05133333 L12.5218,5.98288889" id="Stroke-13" stroke="#2D2D2D" stroke-width="0.5"></path>
                <mask id="mask-2" fill="white">
                    <use xlink:href="#path-1"></use>
                </mask>
                <g id="Clip-16"></g>
                <polygon id="Stroke-15" stroke="#2D2D2D" stroke-width="0.5" mask="url(#mask-2)" points="16.552 17.134 18.012 17.134 18.012 15.5788148 16.552 15.5788148"></polygon>
            </g>
        </g>
    </g>
</svg>