<svg width="52px" height="25px" viewBox="0 0 52 25" version="1.1" xmlns="http://www.w3.org/2000/svg" xmlns:xlink="http://www.w3.org/1999/xlink">
    <title>speedy-delivery</title>
    <g id="symbols" stroke="none" stroke-width="1" fill="none" fill-rule="evenodd">
        <g id="Group-2-Copy-2" transform="translate(-7.000000, 0.000000)" stroke="#2E2E2E" stroke-width="0.5">
            <g id="speedy-delivery" transform="translate(7.000000, 0.000000)">
                <path d="M18.295,0.5 L39.25,0.5 C39.573,0.5 39.835,0.762 39.835,1.085 L39.835,13.56" id="Stroke-1"></path>
                <line x1="51.0996" y1="13.56" x2="27.1456" y2="13.56" id="Stroke-3" stroke-linecap="round"></line>
                <path d="M40.0513,3.5948 L45.5723,3.5948 C46.6433,3.5948 51.6103,11.1828 51.6103,14.5178 L51.6103,20.9098 L48.3143,20.9098" id="Stroke-5"></path>
                <path d="M29.258,20.8482 C29.258,22.8652 27.623,24.5002 25.606,24.5002 C23.589,24.5002 21.954,22.8652 21.954,20.8482 C21.954,18.8312 23.589,17.1962 25.606,17.1962 C27.623,17.1962 29.258,18.8312 29.258,20.8482 Z" id="Stroke-7"></path>
                <path d="M26.7751,20.7791 C26.7751,21.4251 26.2521,21.9481 25.6061,21.9481 C24.9611,21.9481 24.4371,21.4251 24.4371,20.7791 C24.4371,20.1331 24.9611,19.6101 25.6061,19.6101 C26.2521,19.6101 26.7751,20.1331 26.7751,20.7791 Z" id="Stroke-9"></path>
                <path d="M48.2,20.8482 C48.2,22.8652 46.565,24.5002 44.548,24.5002 C42.531,24.5002 40.896,22.8652 40.896,20.8482 C40.896,18.8312 42.531,17.1962 44.548,17.1962 C46.565,17.1962 48.2,18.8312 48.2,20.8482 Z" id="Stroke-11"></path>
                <path d="M45.7171,20.7791 C45.7171,21.4251 45.1941,21.9481 44.5481,21.9481 C43.9031,21.9481 43.3791,21.4251 43.3791,20.7791 C43.3791,20.1331 43.9031,19.6101 44.5481,19.6101 C45.1941,19.6101 45.7171,20.1331 45.7171,20.7791 Z" id="Stroke-13"></path>
                <line x1="29.6992" y1="20.9797" x2="40.8962" y2="20.9797" id="Stroke-15"></line>
                <line x1="18.883" y1="20.9797" x2="21.761" y2="20.9797" id="Stroke-17" stroke-linecap="round"></line>
                <line x1="17.5832" y1="3.5948" x2="2.1712" y2="3.5948" id="Stroke-19" stroke-linecap="round"></line>
                <line x1="15.912" y1="10.1302" x2="0.5" y2="10.1302" id="Stroke-21" stroke-linecap="round"></line>
                <line x1="18.883" y1="17.1963" x2="3.471" y2="17.1963" id="Stroke-23" stroke-linecap="round"></line>
            </g>
        </g>
    </g>
</svg>